<?xml version="1.0" encoding="utf-8"?>
<!-- Generator: Adobe Illustrator 23.0.0, SVG Export Plug-In . SVG Version: 6.00 Build 0)  -->
<svg version="1.1" id="Layer_1" xmlns="http://www.w3.org/2000/svg" xmlns:xlink="http://www.w3.org/1999/xlink" x="0px" y="0px"
	 viewBox="0 0 569 92" style="enable-background:new 0 0 569 92;" xml:space="preserve">
<style type="text/css">
	.st0{fill-rule:evenodd;clip-rule:evenodd;}
	.st1{fill-rule:evenodd;clip-rule:evenodd;fill:#3399CC;}
</style>
<g>
	<path class="st0" d="M59.53,52.58H40.58c-1.52,0-2.42-0.24-2.7-0.73c-0.13-0.23-0.2-1.26-0.2-3.09V11.77
		c0-1.84,0.14-2.91,0.41-3.22c0.27-0.3,1.1-0.45,2.49-0.45h16.39c2.78,0.15,4.86,0.25,6.25,0.3c4.18,0.24,6.94,0.48,8.28,0.74
		L70.88,2.1H40.25c-4.97,0-8.39,0.79-10.26,2.36c-1.86,1.58-2.79,4.56-2.79,8.94v33.64c0,4.61,1.04,7.72,3.13,9.34
		c1.81,1.41,5.12,2.12,9.92,2.12h31.41l0.55-7.12c-2.1,0.38-4.12,0.68-6.06,0.89C64.22,52.48,62.01,52.58,59.53,52.58"/>
	<path class="st0" d="M112.44,16.74H87.8c-4.38,0-7.36,0.85-8.95,2.55c-1.58,1.69-2.37,4.54-2.37,8.52v19.38
		c0,4.37,0.82,7.35,2.47,8.93c1.64,1.59,4.59,2.38,8.85,2.38h24.64c4.26,0,7.2-0.87,8.81-2.6c1.62-1.73,2.43-4.64,2.43-8.71V27.81
		c0-4.21-0.82-7.11-2.47-8.69C119.57,17.53,116.64,16.74,112.44,16.74 M114.88,25.8v23.51c0,1.64-0.21,2.68-0.65,3.11
		c-0.42,0.43-1.17,0.64-2.24,0.64H88.17c-1.28,0-2.07-0.21-2.37-0.64c-0.29-0.42-0.44-1.46-0.44-3.11V25.77
		c0-1.81,0.15-2.86,0.44-3.15c0.29-0.29,1.08-0.44,2.37-0.44h23.82c1.43,0,2.3,0.16,2.59,0.49c0.2,0.23,0.3,0.84,0.3,1.81
		C114.86,24.75,114.86,25.19,114.88,25.8"/>
	<path class="st0" d="M175.88,2.1h-9.6c0.53,2.67,0.8,5.75,0.8,9.25l-0.04,6.25c0.33,0.55,0.33,1.63-0.02,3.28l0.02-3.28
		c-0.07-0.11-0.15-0.21-0.24-0.27c-0.58-0.39-2.21-0.59-4.89-0.59H140.8c-4.38,0-7.36,0.85-8.94,2.55
		c-1.59,1.69-2.38,4.54-2.38,8.52v19.38c0,4.37,0.82,7.35,2.47,8.93c1.64,1.59,4.59,2.38,8.85,2.38h21.59
		c3.84,0,5.73-1.17,5.67-3.52l-0.09,3.52h8.55c-0.43-2.25-0.64-5.39-0.64-9.42V2.1z M167.08,25.81v23.5c0,1.69-0.2,2.74-0.61,3.15
		c-0.4,0.4-1.17,0.6-2.3,0.6h-22.98c-1.29,0-2.09-0.21-2.38-0.64c-0.3-0.42-0.45-1.46-0.45-3.11V25.77c0-1.81,0.15-2.86,0.44-3.15
		c0.29-0.29,1.09-0.44,2.39-0.44h22.98c1.38,0,2.21,0.17,2.49,0.5s0.42,1,0.42,2.02C167.06,24.93,167.06,25.3,167.08,25.81"/>
	<path class="st0" d="M229.68,40.82V27.8c0-4.2-0.82-7.1-2.47-8.68c-1.64-1.59-4.57-2.38-8.77-2.38H193.8
		c-4.38,0-7.36,0.85-8.95,2.55c-1.58,1.69-2.37,4.54-2.37,8.52v19.38c0,4.37,0.82,7.35,2.47,8.93c1.64,1.59,4.59,2.38,8.85,2.38
		h34.97l0.91-6.4c-2.51,0.64-5.66,0.96-9.44,0.96h-26.07c-1.28,0-2.07-0.21-2.37-0.64c-0.29-0.42-0.44-1.47-0.44-3.12v-8.48H229.68z
		 M191.36,25.79c0-1.82,0.15-2.88,0.44-3.17c0.29-0.29,1.08-0.44,2.38-0.44h23.81c1.43,0,2.3,0.17,2.59,0.5
		c0.2,0.23,0.3,0.83,0.3,1.81c-0.02,0.27-0.02,0.72,0,1.32v9.57h-29.52V25.79z"/>
	<path class="st1" d="M282.52,26.99c-1.86-1.55-5.25-2.33-10.15-2.33H249.4c-1.34,0-2.15-0.2-2.45-0.6
		c-0.28-0.4-0.43-1.47-0.43-3.22v-9.12c0.18-1.88,0.42-2.98,0.69-3.29c0.23-0.22,0.96-0.33,2.19-0.33h23.05
		c1.48,0,4.24,0.12,8.25,0.35c0.62,0,1.74,0.04,3.36,0.14l-0.72-6.49h-34.27c-5.01,0-8.44,0.77-10.28,2.32
		c-1.83,1.55-2.75,4.54-2.75,8.98v9.64c0,4.55,1.04,7.64,3.12,9.26c1.81,1.41,5.11,2.12,9.91,2.12h22.89c1.38,0,2.2,0.18,2.46,0.55
		c0.28,0.42,0.42,1.46,0.42,3.12v10.66c0,1.67-0.18,2.73-0.55,3.17c-0.36,0.44-1.14,0.66-2.33,0.66h-23.83
		c-0.89,0-3.61-0.18-8.17-0.55c-0.6-0.05-1.73-0.13-3.37-0.25l0.62,6.72h35.16c4.91,0,8.3-0.84,10.16-2.53
		c1.86-1.69,2.79-4.67,2.79-8.94V35.97C285.32,31.53,284.39,28.54,282.52,26.99"/>
	<path class="st1" d="M305.21,53.06c-1.34,0-2.15-0.21-2.45-0.64c-0.29-0.42-0.44-1.46-0.44-3.11V25.77c0-1.71,0.17-2.73,0.51-3.08
		c0.35-0.34,1.14-0.51,2.38-0.51h21.13c3.59,0,6.76,0.23,9.52,0.69l-0.47-6.13h-30.63c-4.38,0-7.36,0.82-8.95,2.46
		c-1.58,1.64-2.37,4.51-2.37,8.61v19.38c0,4.42,0.84,7.41,2.52,8.97c1.67,1.56,4.61,2.34,8.8,2.34H336l0.64-6.4
		c-2.51,0.64-5.66,0.96-9.44,0.96H305.21z"/>
	<path class="st1" d="M386.88,27.81c0-4.43-0.84-7.39-2.52-8.86c-1.67-1.47-4.66-2.21-8.95-2.21h-33.42l-0.81,6.16
		c2.81-0.48,5.98-0.72,9.52-0.72h24.33c1.36,0,2.18,0.19,2.46,0.56c0.29,0.38,0.43,1.34,0.43,2.89v0.47c0,1.8-0.19,2.9-0.57,3.27
		c-0.37,0.38-1.15,0.57-2.32,0.57H351.8c-4.38,0-7.36,0.85-8.94,2.54c-1.59,1.7-2.38,4.57-2.38,8.6v6.12c0,4.36,0.82,7.34,2.47,8.92
		c1.64,1.59,4.59,2.38,8.85,2.38h21.74c1.9,0,3.24-0.19,4.02-0.56c0.79-0.37,1.19-1.01,1.23-1.92l0.34,2.48h8.39
		c-0.43-2.25-0.64-5.4-0.64-9.43V27.81z M377.92,49.31c0,1.7-0.2,2.74-0.61,3.15c-0.4,0.4-1.16,0.6-2.28,0.6h-22.86
		c-1.28,0-2.07-0.21-2.37-0.64c-0.29-0.42-0.44-1.46-0.44-3.11V39.05c0-1.9,0.26-3.09,0.76-3.55c0.1-0.08,0.78-0.12,2.05-0.12h25.75
		V49.31z"/>
	<path class="st1" d="M404.76,2.1H395c0.53,3.02,0.8,6.1,0.8,9.27v37.71c0,3.43-0.27,6.57-0.8,9.42h10.48
		c-0.48-2.46-0.72-5.6-0.72-9.42V2.1z"/>
	<path class="st1" d="M447.44,16.74H422.8c-4.38,0-7.36,0.85-8.95,2.55c-1.58,1.69-2.37,4.54-2.37,8.52v19.38
		c0,4.37,0.82,7.35,2.47,8.93c1.64,1.59,4.59,2.38,8.85,2.38h34.97l0.91-6.4c-2.51,0.64-5.66,0.96-9.44,0.96h-26.07
		c-1.28,0-2.07-0.21-2.37-0.64c-0.29-0.42-0.44-1.47-0.44-3.12v-8.48h38.32V27.8c0-4.2-0.82-7.1-2.47-8.68
		C454.57,17.53,451.64,16.74,447.44,16.74 M449.88,25.81v9.57h-29.52v-9.59c0-1.82,0.15-2.88,0.44-3.17s1.08-0.44,2.38-0.44h23.81
		c1.43,0,2.3,0.17,2.59,0.5c0.2,0.23,0.3,0.83,0.3,1.81C449.86,24.76,449.86,25.21,449.88,25.81"/>
	<path class="st1" d="M474.25,17.94c-0.52,0.44-0.73,1.27-0.65,2.49l-0.13-3.69h-8.83c0.53,2.92,0.8,5.99,0.8,9.19v23.14
		c0,3.44-0.27,6.58-0.8,9.43h10.48c-0.53-2.6-0.8-5.74-0.8-9.42V27.05c0-1.82,0.17-2.89,0.51-3.24c0.35-0.34,1.14-0.51,2.38-0.51
		h6.12c0.1,0,2.03,0.19,5.8,0.56c1.1,0.11,3.02,0.27,5.77,0.48l0.46-7.6h-16.9C476.58,16.74,475.17,17.14,474.25,17.94"/>
	<path class="st1" d="M530.39,32.26h-21.46c-1.63,0-2.58-0.49-2.85-1.46c-0.03-0.1-0.04-0.86-0.04-2.29v-2.74
		c0-1.76,0.21-2.85,0.63-3.27c0.21-0.21,0.97-0.32,2.26-0.32h23.35c3.59,0,6.76,0.23,9.52,0.69l-0.9-6.13h-32.34
		c-4.37,0-7.35,0.82-8.94,2.46s-2.38,4.51-2.38,8.6v1.72c0,4.42,0.84,7.4,2.52,8.96c1.68,1.56,4.62,2.34,8.81,2.34h22.1
		c1.48,0,2.34,0.16,2.58,0.48c0.26,0.46,0.39,1.53,0.39,3.2v4.8c0,1.7-0.2,2.75-0.61,3.15c-0.4,0.41-1.19,0.61-2.37,0.61h-23.95
		c-3.93,0-7.08-0.32-9.47-0.95l0.63,6.39h33.22c3.8,0,6.54-0.64,8.21-1.93c1.67-1.28,2.5-3.21,2.5-5.78v-7.37
		c0-4.27-0.85-7.19-2.56-8.78C537.54,33.05,534.58,32.26,530.39,32.26"/>
	<polygon points="360.17,78.63 372.22,78.63 372.22,75.34 360.17,75.34 360.17,68.45 379.88,68.45 379.88,65.13 356.02,65.13 
		356.02,89.9 380.07,89.9 380.07,86.5 360.17,86.5 	"/>
	<path d="M414.83,65.13H398.8c-2.27,0-3.8,0.41-4.61,1.24c-0.8,0.83-1.21,2.37-1.21,4.62v13.06c0,2.25,0.4,3.79,1.21,4.62
		c0.81,0.83,2.34,1.24,4.61,1.24h16.03c2.25,0,3.78-0.41,4.59-1.23c0.81-0.82,1.22-2.36,1.22-4.63v-8.02h-14.16v3.17h10.03v7.26
		h-19.41V68.5h19.41v3.63l4.13-0.82V70.7c0-2.11-0.41-3.57-1.24-4.37S417.05,65.13,414.83,65.13"/>
	<polygon points="446.86,76.16 437.18,65.13 432.05,65.13 444.61,79.09 444.61,89.9 448.74,89.9 448.74,79 461.18,65.13 
		456.14,65.13 	"/>
	<path d="M492.5,65.13h-19.97V89.9h4.15v-9.66h15.82c1.86,0,3.2-0.38,4.02-1.14c0.82-0.76,1.23-1.97,1.23-3.65v-5.53
		c0-1.69-0.41-2.91-1.23-3.67C495.7,65.5,494.36,65.13,492.5,65.13 M493.55,74.38c0,0.95-0.19,1.63-0.57,2.02
		c-0.38,0.39-1.08,0.59-2.1,0.59h-14.2v-8.65h14.2c1.02,0,1.72,0.19,2.1,0.59s0.57,1.06,0.57,2.02V74.38z"/>
	<polygon points="510.41,65.13 510.41,68.5 521.73,68.5 521.73,89.9 525.86,89.9 525.86,68.5 537.22,68.5 537.22,65.13 	"/>
</g>
</svg>
